<?xml version="1.0" encoding="UTF-8"?>
<svg fill="none" viewBox="0 0 1920 4120" xmlns="http://www.w3.org/2000/svg">
<g filter="url(#m)" opacity=".7">
<path transform="translate(532.4 2314.1) rotate(128.15)" d="m0.63949 384.5c12 225 381.5 216.5 802.5 406l135-790.5c-26 29-149.5 78.6-435.5 45-357.5-42-514 114.5-502 339.5z" fill="#091B39"/>
</g>
<g filter="url(#i)" opacity=".6">
<path transform="translate(707 778)" d="m219.01 165.01c-144.5-30.568-258.5 41-206 197.5 52.5 158 215 47 251.5-14.5s129-60 244.5-66 82-283.5-42.5-282c-124.5 1.5-108.5 194.4-247.5 165z" fill="#1261AD"/>
</g>
<g filter="url(#h)" opacity=".4">
<path transform="translate(977.34 1449.4) rotate(150)" d="m364.68 549.86c219.45 24.306 546.37 65.871 679.34 201.14l31.99-751c-59.15 65.284-242.44 181.27-502.38 122.94-324.92-72.916-565.86 48.61-573.36 168.38-7.4982 119.76 144.96 234.25 364.41 258.55z" fill="#091B39"/>
</g>
<g filter="url(#g)" opacity=".4">
<path transform="translate(725 1743)" d="m0.70552 424.14c13.239 248.2 420.89 238.82 885.36 447.86l148.94-872c-28.68 31.99-164.94 86.704-480.46 49.64-394.41-46.33-567.07 126.31-553.83 374.5z" fill="#091B39"/>
</g>
<g filter="url(#f)" opacity=".25">
<path transform="translate(2066.2 2897) rotate(62.956)" d="m322.2 1264.5c193.89 55.89 482.74 151.48 600.22 462.55l28.266-1727.1c-52.263 150.13-214.21 416.86-443.87 282.72-287.08-167.69-499.96 111.79-506.59 387.22-6.6249 275.43 128.08 538.7 321.97 594.6z" fill="#16529B"/>
</g>
<g filter="url(#e)" opacity=".4">
<path transform="translate(1055 757) rotate(177.2)" d="M443.09 892.67L0 0H91.6378L829.427 794.707L443.09 892.67Z" fill="#4AD6F5"/>
</g>
<g filter="url(#d)" opacity=".35">
<path transform="translate(210 686) rotate(192.42)" d="M376.371 759.202L0 0H77.8393L704.534 675.886L376.371 759.202Z" fill="#4AD6F5"/>
</g>
<g filter="url(#c)" opacity=".2">
<path transform="translate(319.66 544.03) rotate(186.49)" d="M293.374 591.784L0 0H60.6742L549.171 526.84L293.374 591.784Z" fill="#fff"/>
</g>
<g filter="url(#b)" opacity=".2">
<path transform="translate(1234.7 488.07) rotate(170.78)" d="M293.374 591.784L0 0H60.6742L549.171 526.84L293.374 591.784Z" fill="#fff"/>
</g>
<g filter="url(#a)" opacity=".2">
<path transform="translate(1618.6 313.93) rotate(167.58)" d="M293.374 591.784L0 0H60.6742L549.171 526.84L293.374 591.784Z" fill="#fff"/>
</g>
<g filter="url(#l)" opacity=".2">
<path transform="translate(568.66 530.03) rotate(186.49)" d="M293.374 591.784L0 0H60.6742L549.171 526.84L293.374 591.784Z" fill="#fff"/>
</g>
<g filter="url(#k)" opacity=".4">
<path transform="translate(1486.1 528.57) rotate(152.65)" d="M119.849 947.138L0 0H50.5837L384.838 838.668L119.849 947.138Z" fill="#4AD6F5"/>
</g>
<g filter="url(#j)" opacity=".35">
<path transform="translate(563.07 756.99) rotate(187.45)" d="M271.5 808.5L0 46.5L39 0L642.5 715L271.5 808.5Z" fill="#B2F1FF"/>
</g>
<defs>
<filter id="m" x="-868.74" y="1625.8" width="1601.2" height="1626.1" color-interpolation-filters="sRGB" filterUnits="userSpaceOnUse">
<feFlood flood-opacity="0" result="BackgroundImageFix"/>
<feBlend in="SourceGraphic" in2="BackgroundImageFix" result="shape"/>
<feGaussianBlur result="effect1_foregroundBlur" stdDeviation="100"/>
</filter>
<filter id="i" x="507" y="578" width="979.98" height="843.57" color-interpolation-filters="sRGB" filterUnits="userSpaceOnUse">
<feFlood flood-opacity="0" result="BackgroundImageFix"/>
<feBlend in="SourceGraphic" in2="BackgroundImageFix" result="shape"/>
<feGaussianBlur result="effect1_foregroundBlur" stdDeviation="100"/>
</filter>
<filter id="h" x="-530" y="599" width="1707.3" height="1588.4" color-interpolation-filters="sRGB" filterUnits="userSpaceOnUse">
<feFlood flood-opacity="0" result="BackgroundImageFix"/>
<feBlend in="SourceGraphic" in2="BackgroundImageFix" result="shape"/>
<feGaussianBlur result="effect1_foregroundBlur" stdDeviation="100"/>
</filter>
<filter id="g" x="625" y="1643" width="1235" height="1072" color-interpolation-filters="sRGB" filterUnits="userSpaceOnUse">
<feFlood flood-opacity="0" result="BackgroundImageFix"/>
<feBlend in="SourceGraphic" in2="BackgroundImageFix" result="shape"/>
<feGaussianBlur result="effect1_foregroundBlur" stdDeviation="50"/>
</filter>
<filter id="f" x="328" y="2697" width="2370.5" height="2032" color-interpolation-filters="sRGB" filterUnits="userSpaceOnUse">
<feFlood flood-opacity="0" result="BackgroundImageFix"/>
<feBlend in="SourceGraphic" in2="BackgroundImageFix" result="shape"/>
<feGaussianBlur result="effect1_foregroundBlur" stdDeviation="100"/>
</filter>
<filter id="e" x="103" y="-214.61" width="1032.8" height="1092.1" color-interpolation-filters="sRGB" filterUnits="userSpaceOnUse">
<feFlood flood-opacity="0" result="BackgroundImageFix"/>
<feBlend in="SourceGraphic" in2="BackgroundImageFix" result="shape"/>
<feGaussianBlur result="effect1_foregroundBlur" stdDeviation="40"/>
</filter>
<filter id="d" x="-558.04" y="-287" width="1011.4" height="1053.7" color-interpolation-filters="sRGB" filterUnits="userSpaceOnUse">
<feFlood flood-opacity="0" result="BackgroundImageFix"/>
<feBlend in="SourceGraphic" in2="BackgroundImageFix" result="shape"/>
<feGaussianBlur result="effect1_foregroundBlur" stdDeviation="40"/>
</filter>
<filter id="c" x="-306" y="-186" width="772.5" height="810.62" color-interpolation-filters="sRGB" filterUnits="userSpaceOnUse">
<feFlood flood-opacity="0" result="BackgroundImageFix"/>
<feBlend in="SourceGraphic" in2="BackgroundImageFix" result="shape"/>
<feGaussianBlur result="effect1_foregroundBlur" stdDeviation="40"/>
</filter>
<filter id="b" x="517.79" y="-176.06" width="797.79" height="832.15" color-interpolation-filters="sRGB" filterUnits="userSpaceOnUse">
<feFlood flood-opacity="0" result="BackgroundImageFix"/>
<feBlend in="SourceGraphic" in2="BackgroundImageFix" result="shape"/>
<feGaussianBlur result="effect1_foregroundBlur" stdDeviation="40"/>
</filter>
<filter id="a" x="875" y="-344" width="824.52" height="856.08" color-interpolation-filters="sRGB" filterUnits="userSpaceOnUse">
<feFlood flood-opacity="0" result="BackgroundImageFix"/>
<feBlend in="SourceGraphic" in2="BackgroundImageFix" result="shape"/>
<feGaussianBlur result="effect1_foregroundBlur" stdDeviation="40"/>
</filter>
<filter id="l" x="-57" y="-200" width="772.5" height="810.62" color-interpolation-filters="sRGB" filterUnits="userSpaceOnUse">
<feFlood flood-opacity="0" result="BackgroundImageFix"/>
<feBlend in="SourceGraphic" in2="BackgroundImageFix" result="shape"/>
<feGaussianBlur result="effect1_foregroundBlur" stdDeviation="40"/>
</filter>
<filter id="k" x="629.09" y="-392.67" width="937.74" height="1178.1" color-interpolation-filters="sRGB" filterUnits="userSpaceOnUse">
<feFlood flood-opacity="0" result="BackgroundImageFix"/>
<feBlend in="SourceGraphic" in2="BackgroundImageFix" result="shape"/>
<feGaussianBlur result="effect1_foregroundBlur" stdDeviation="40"/>
</filter>
<filter id="j" x="-154" y="-208" width="901.92" height="1045" color-interpolation-filters="sRGB" filterUnits="userSpaceOnUse">
<feFlood flood-opacity="0" result="BackgroundImageFix"/>
<feBlend in="SourceGraphic" in2="BackgroundImageFix" result="shape"/>
<feGaussianBlur result="effect1_foregroundBlur" stdDeviation="40"/>
</filter>
</defs>
</svg>
