<svg width="50" height="50" viewBox="0 0 50 50" fill="none" xmlns="http://www.w3.org/2000/svg">
<path d="M25 0H0V5H25V0Z" transform="translate(12.5 45)" fill="white"/>
<path d="M47.5 2.5H39.25C38.5 1 36.75 0 35 0H15C13.25 0 11.5 1 10.75 2.5H2.5C1 2.5 0 3.5 0 5V15C0 15.75 0.25 16.5 1 17L13.25 26.75C15.5 29.5 18.75 31.5 22.5 32.25V35H17.5C16 35 15 36 15 37.5V42.5H35V37.5C35 36 34 35 32.5 35H27.5V32.25C31.25 31.5 34.5 29.5 36.75 26.75L49 17C49.75 16.5 50 15.75 50 15V5C50 3.5 49 2.5 47.5 2.5ZM5 13.75V7.5H10V17.5V17.75L5 13.75ZM45 13.75L40 17.75V17.5V7.5H45V13.75Z" fill="white"/>
</svg>
