<svg width="57" height="57" viewBox="0 0 57 57" fill="none" xmlns="http://www.w3.org/2000/svg">
<path d="M39.9 16.3875C39.6625 15.2 38.7125 14.25 37.525 14.25H32.775V11.875H37.525C38.95 11.875 39.9 10.925 39.9 9.5V2.375C39.9 0.95 38.95 0 37.525 0H23.275C21.85 0 20.9 0.95 20.9 2.375V9.5C20.9 10.925 21.85 11.875 23.275 11.875H28.025V14.25H18.525V4.75C18.525 4.0375 18.05 3.0875 17.3375 2.6125C16.625 2.1375 15.675 2.1375 14.9625 2.6125L11.4 4.5125L7.6 2.6125C6.8875 2.375 6.175 2.375 5.4625 2.6125C4.75 3.0875 4.275 4.0375 4.275 4.75V14.25C3.0875 14.25 2.1375 15.2 1.9 16.3875L1.13249e-07 35.625H41.8L39.9 16.3875ZM9.025 8.55L10.45 9.2625C10.925 9.5 11.875 9.5 12.35 9.2625L13.775 8.55V14.25H9.025V8.55ZM16.15 23.75H6.65V19H16.15V23.75ZM25.65 7.125V4.75H35.15V7.125H25.65ZM23.275 30.875C21.85 30.875 20.9 29.925 20.9 28.5C20.9 27.075 21.85 26.125 23.275 26.125C24.7 26.125 25.65 27.075 25.65 28.5C25.65 29.925 24.7 30.875 23.275 30.875ZM23.275 23.75C21.85 23.75 20.9 22.8 20.9 21.375C20.9 19.95 21.85 19 23.275 19C24.7 19 25.65 19.95 25.65 21.375C25.65 22.8 24.7 23.75 23.275 23.75ZM30.4 30.875C28.975 30.875 28.025 29.925 28.025 28.5C28.025 27.075 28.975 26.125 30.4 26.125C31.825 26.125 32.775 27.075 32.775 28.5C32.775 29.925 31.825 30.875 30.4 30.875ZM30.4 23.75C28.975 23.75 28.025 22.8 28.025 21.375C28.025 19.95 28.975 19 30.4 19C31.825 19 32.775 19.95 32.775 21.375C32.775 22.8 31.825 23.75 30.4 23.75Z" transform="translate(7.59766 4.75)" fill="white"/>
<path d="M45.125 0H2.375C0.95 0 0 0.95 0 2.375V9.5C0 10.925 0.95 11.875 2.375 11.875H45.125C46.55 11.875 47.5 10.925 47.5 9.5V2.375C47.5 0.95 46.55 0 45.125 0Z" transform="translate(4.75 42.75)" fill="white"/>
</svg>
