<svg width="41" height="53" viewBox="0 0 41 53" fill="none" xmlns="http://www.w3.org/2000/svg">
<path d="M3.30652 10.8208L0 7.95C4.18826 2.87083 10.3604 0 16.9735 0C23.3661 0 29.5383 2.87083 33.7265 7.72917L30.42 10.6C26.893 6.625 22.0435 4.41667 16.9735 4.41667C11.683 4.41667 6.83348 6.625 3.30652 10.8208Z" fill="white"/>
<path d="M17.6348 7.95C15.8713 5.74167 13.2261 4.41667 10.5809 4.41667C7.71522 4.41667 5.07 5.74167 3.52696 7.95L2.10223e-07 5.3C2.42478 1.9875 6.39261 0 10.5809 0C14.7691 0 18.737 1.9875 21.1617 5.3L17.6348 7.95Z" transform="translate(6.39453 8.83398)" fill="white"/>
<path d="M22.0435 24.9542L14.5487 17.4458L19.3983 12.5875L22.0435 13.9125V4.19583C22.0435 1.76667 20.0596 8.42412e-07 17.6348 8.42412e-07H4.40869C1.98391 8.42412e-07 -2.10223e-07 1.9875 -2.10223e-07 4.41667V26.5C-2.10223e-07 28.9292 1.98391 30.9167 4.40869 30.9167H17.6348C20.0596 30.9167 22.0435 28.9292 22.0435 26.7208V24.9542ZM11.0217 22.525C9.47869 22.525 8.15609 21.2 8.15609 19.6542C8.15609 18.1083 9.47869 16.7833 11.0217 16.7833C12.5648 16.7833 13.8874 18.1083 13.8874 19.6542C13.8874 21.2 12.5648 22.525 11.0217 22.525ZM11.0217 13.6917C9.47869 13.6917 8.15609 12.3667 8.15609 10.8208C8.15609 9.275 9.47869 7.95 11.0217 7.95C12.5648 7.95 13.8874 9.275 13.8874 10.8208C13.8874 12.3667 12.5648 13.6917 11.0217 13.6917Z" transform="translate(5.73047 20.0957)" fill="white"/>
<path d="M6.61304 0L13.2261 6.625V17.6667L17.6348 28.7083H6.61304V19.875L8.40892e-07 13.25L2.20435 11.0417L6.61304 13.25V0Z" transform="translate(23.3652 24.291)" fill="white"/>
</svg>
