<svg width="22" height="14" viewBox="0 0 22 14" fill="none" xmlns="http://www.w3.org/2000/svg">
<path d="M21.7696 6.49975L20.5098 5.32772L15.0866 0.267994C14.7025 -0.0893313 14.1034 -0.0893313 13.7193 0.267994L13.2737 0.682491C12.8897 1.03982 12.8897 1.59724 13.2737 1.95457L17.4064 5.79939H0.967877C0.430168 5.79939 0 6.19959 0 6.69985V7.30015C0 7.80041 0.430168 8.20061 0.967877 8.20061H17.4064L13.2737 12.0454C12.8897 12.4028 12.8897 12.9602 13.2737 13.3175L13.7193 13.732C14.1034 14.0893 14.7025 14.0893 15.0866 13.732L20.5098 8.68657L21.7696 7.51455C22.0768 7.24298 22.0768 6.77131 21.7696 6.49975Z" fill="black"/>
</svg>
